<svg width="17" height="16" viewBox="0 0 17 16" fill="none" xmlns="http://www.w3.org/2000/svg">
  <path d="M14.1587 5.65871V2.34129H10.8413L8.5 0L6.15871 2.34129H2.84129V5.65871L0.5 8L2.84129 10.3413V13.6587H6.15871L8.5 16L10.8413 13.6587H14.1587V10.3413L16.5 8L14.1587 5.65871ZM8.5 12.244C6.15871 12.244 4.25597 10.3413 4.25597 8C4.25597 5.65871 6.15871 3.75597 8.5 3.75597C10.8413 3.75597 12.744 5.65871 12.744 8C12.744 10.3413 10.8413 12.244 8.5 12.244ZM8.5 5.17065C6.93678 5.17065 5.67065 6.43678 5.67065 8C5.67065 9.56322 6.93678 10.8294 8.5 10.8294C10.0632 10.8294 11.3294 9.56322 11.3294 8C11.3294 6.43678 10.0632 5.17065 8.5 5.17065Z" fill="#13B887"/>
</svg>
