<svg width="16" height="16" viewBox="0 0 16 16" fill="none" xmlns="http://www.w3.org/2000/svg">
<path d="M13.6587 5.65871V2.34129H10.3413L8 0L5.65871 2.34129H2.34129V5.65871L0 8L2.34129 10.3413V13.6587H5.65871L8 16L10.3413 13.6587H13.6587V10.3413L16 8L13.6587 5.65871ZM8 12.244C5.65871 12.244 3.75597 10.3413 3.75597 8C3.75597 5.65871 5.65871 3.75597 8 3.75597C10.3413 3.75597 12.244 5.65871 12.244 8C12.244 10.3413 10.3413 12.244 8 12.244ZM8 5.17065C6.43678 5.17065 5.17065 6.43678 5.17065 8C5.17065 9.56322 6.43678 10.8294 8 10.8294C9.56322 10.8294 10.8294 9.56322 10.8294 8C10.8294 6.43678 9.56322 5.17065 8 5.17065Z" fill="#C2C5C7"/>
</svg>
