<svg width="17" height="16" viewBox="0 0 17 16" fill="none" xmlns="http://www.w3.org/2000/svg">
<path d="M14.1587 5.65871V2.34129H10.8413L8.5 0L6.15871 2.34129H2.84129V5.65871L0.5 8L2.84129 10.3413V13.6587H6.15871L8.5 16L10.8413 13.6587H14.1587V10.3413L16.5 8L14.1587 5.65871ZM8.5 12.244C7.87047 12.244 7.26923 12.1026 6.73165 11.855C8.18877 11.183 9.20734 9.71176 9.20734 8C9.20734 6.28824 8.18877 4.81698 6.73165 4.145C7.26923 3.89744 7.87047 3.75597 8.5 3.75597C10.8413 3.75597 12.744 5.65871 12.744 8C12.744 10.3413 10.8413 12.244 8.5 12.244Z" fill="#82CA1E"/>
</svg>
